<?xml version="1.0" standalone="no"?>
<!DOCTYPE svg PUBLIC "-//W3C//DTD SVG 20010904//EN"
 "http://www.w3.org/TR/2001/REC-SVG-20010904/DTD/svg10.dtd">
<svg version="1.0" xmlns="http://www.w3.org/2000/svg"
 width="500.000000pt" height="381.000000pt" viewBox="0 0 500.000000 381.000000"
 preserveAspectRatio="xMidYMid meet">
<metadata>
Created by potrace 1.15, written by Peter Selinger 2001-2017
</metadata>
<g transform="translate(0.000000,381.000000) scale(0.100000,-0.100000)"
fill="#000000" stroke="none">
<path d="M1155 3769 c0 -37 -4 -43 -34 -60 -51 -27 -60 -39 -29 -39 15 0 29 6
31 13 3 7 6 5 6 -5 1 -10 -4 -18 -11 -18 -9 0 -9 -3 0 -12 13 -13 24 -3 35 26
2 5 10 7 18 4 11 -4 16 -24 17 -73 2 -65 1 -69 -33 -101 -35 -33 -48 -82 -22
-86 6 0 17 -2 22 -2 6 -1 20 -8 33 -15 19 -10 22 -18 17 -41 -3 -16 -2 -31 4
-35 6 -3 11 -19 11 -36 0 -16 5 -29 10 -29 6 0 10 16 10 36 0 27 5 37 19 41
15 4 41 41 41 58 0 15 -33 2 -37 -15 -8 -31 -32 -23 -37 13 -3 17 -10 104 -16
192 -8 103 -17 168 -27 183 -7 12 -11 27 -8 32 3 6 0 10 -7 10 -9 0 -13 -14
-13 -41z"/>
<path d="M1445 3790 c-4 -12 -15 -20 -29 -20 -16 0 -22 -6 -21 -23 0 -13 5
-30 10 -38 6 -8 12 -38 14 -66 1 -40 -1 -53 -12 -53 -8 0 -20 -6 -26 -13 -8
-11 -5 -17 14 -27 21 -11 25 -20 25 -62 0 -113 37 -10 40 112 1 41 5 81 9 90
5 8 6 22 3 30 -5 13 -3 13 11 1 13 -10 17 -11 17 -1 0 7 8 19 18 26 16 12 15
13 -5 14 -13 0 -23 -4 -23 -10 0 -5 -5 -10 -11 -10 -7 0 -9 12 -5 35 5 27 4
35 -8 35 -8 0 -18 -9 -21 -20z"/>
<path d="M1974 3698 c11 -201 13 -233 21 -251 6 -15 4 -51 -7 -99 -2 -9 -13
-27 -23 -38 -20 -22 -20 -22 6 -44 32 -28 49 -57 49 -85 0 -12 4 -21 8 -21 13
0 12 203 -1 218 -15 19 0 27 29 14 22 -11 25 -16 19 -48 -5 -32 -3 -36 14 -31
13 3 21 -1 24 -14 6 -22 -12 -37 -23 -19 -13 21 -20 -6 -10 -37 12 -34 -9 -96
-35 -106 -23 -9 -19 -54 5 -62 11 -3 21 -15 22 -26 0 -10 1 -25 2 -31 1 -7 -7
-12 -16 -10 -14 2 -18 -4 -18 -30 0 -23 3 -29 9 -19 14 22 38 6 43 -29 6 -38
12 -38 -147 13 -60 19 -218 70 -350 112 -132 42 -339 108 -460 147 -121 39
-227 71 -235 71 -8 0 -23 7 -32 15 -22 19 -23 13 -3 -24 22 -43 18 -123 -10
-213 -25 -80 -45 -111 -45 -72 0 12 -7 21 -16 21 -8 0 -13 4 -10 8 2 4 -11 8
-29 7 -27 0 -39 -7 -63 -40 -51 -70 -88 -98 -116 -91 -13 3 -28 15 -31 27 -4
11 -9 18 -12 16 -2 -3 2 -18 10 -34 12 -22 30 -33 89 -52 92 -31 88 -29 81
-48 -5 -14 -8 -14 -17 -1 -13 17 -71 39 -80 31 -15 -15 -3 -33 26 -43 27 -8
28 -9 6 -6 -22 2 -29 -3 -39 -26 -9 -22 -9 -31 1 -43 7 -8 16 -12 21 -9 9 5
13 -9 10 -32 -1 -6 10 -19 24 -28 25 -17 33 -50 15 -61 -16 -10 -82 59 -69 72
8 8 8 13 0 17 -21 13 -28 -3 -26 -59 2 -47 0 -55 -14 -53 -11 3 -16 14 -16 40
0 20 -3 40 -7 44 -5 4 -8 20 -8 35 0 46 -25 89 -44 77 -7 -5 -46 35 -46 47 0
7 -9 23 -20 36 l-19 24 -2 -27 c-1 -16 -2 -34 -3 -40 -1 -7 4 -13 9 -13 19 0
36 -17 34 -33 -3 -23 11 -52 25 -52 18 -1 46 -73 46 -118 0 -41 1 -42 34 -42
19 0 38 5 41 10 13 20 75 11 99 -15 13 -14 25 -25 28 -25 2 0 2 28 1 62 -2 35
2 77 8 95 7 23 7 43 -1 70 -8 27 -9 46 -1 66 11 28 12 28 68 21 31 -4 88 -14
127 -24 54 -13 70 -21 68 -33 -2 -12 15 -21 65 -35 243 -69 333 -96 333 -99 0
-3 -10 -13 -22 -24 -13 -10 -17 -18 -10 -19 15 0 16 -26 1 -35 -6 -4 -13 1
-15 12 -4 15 -13 18 -45 15 -41 -4 -47 -15 -25 -44 8 -12 16 -14 23 -7 7 7 18
7 34 0 13 -5 35 -12 49 -15 21 -4 25 -12 27 -43 3 -47 -12 -76 -27 -53 -5 8
-15 15 -22 16 -7 0 -26 6 -41 13 -32 13 -51 6 -43 -15 3 -9 -2 -14 -14 -14
-15 0 -20 7 -20 28 0 22 -7 30 -30 39 -41 15 -54 52 -28 77 17 15 22 16 29 5
6 -10 9 -11 9 -1 0 7 -5 21 -12 31 -11 18 -13 17 -35 -9 -12 -15 -23 -33 -23
-39 0 -16 -36 -13 -50 4 -12 15 -4 20 23 16 18 -3 4 27 -15 33 -27 7 -58 -24
-58 -58 0 -12 -5 -27 -11 -33 -13 -13 -4 -33 17 -33 8 0 14 -4 14 -8 0 -17
-25 -32 -52 -32 -18 0 -28 -5 -28 -15 0 -7 -6 -18 -13 -22 -20 -11 -26 -47
-12 -60 7 -7 16 -9 20 -5 9 9 125 9 125 0 0 -4 -9 -9 -19 -13 -11 -3 -21 -12
-24 -19 -4 -10 9 -13 54 -12 53 1 60 3 55 19 -3 13 3 21 22 28 15 5 38 15 51
22 20 10 25 9 29 -1 3 -10 8 -8 18 5 11 15 13 15 14 2 0 -8 6 -23 13 -33 12
-16 16 -17 35 -5 19 12 26 12 49 -1 37 -21 34 -35 -8 -36 -20 -1 -42 -5 -50
-9 -7 -5 -27 -10 -43 -12 -37 -4 -46 -17 -46 -70 0 -32 4 -43 16 -43 8 0 13 4
10 9 -3 5 1 12 10 15 13 5 14 9 4 21 -15 18 -14 19 25 39 20 10 33 12 41 5 8
-6 19 -7 31 -1 37 19 83 30 88 21 19 -29 -54 -71 -82 -47 -13 11 -83 2 -83
-10 1 -12 61 -74 67 -68 9 9 -6 38 -17 31 -5 -3 -10 -2 -10 3 0 5 11 14 25 20
21 10 27 9 31 -3 4 -8 1 -22 -6 -30 -13 -15 -8 -19 22 -16 9 1 19 -3 23 -9 3
-5 14 -10 25 -10 10 0 21 -7 24 -16 8 -22 8 -24 -8 -24 -20 0 -31 -19 -18 -32
7 -7 18 -4 36 7 l26 17 0 -31 c0 -19 -4 -30 -10 -26 -5 3 -20 0 -32 -7 -13 -7
-27 -12 -33 -13 -5 0 -14 -10 -21 -23 -16 -33 -22 -36 -40 -21 -14 11 -18 11
-29 -5 -8 -10 -18 -15 -24 -11 -18 10 -12 -4 10 -26 19 -19 22 -19 44 -5 13 8
36 15 52 14 15 -1 36 2 45 6 13 6 20 3 24 -9 9 -23 -33 -57 -60 -49 -12 4 -16
2 -12 -5 4 -6 13 -11 20 -11 8 0 26 -6 41 -14 29 -15 67 -4 59 18 -2 6 6 24
19 39 19 24 26 27 47 19 14 -5 31 -20 37 -33 17 -36 25 -96 13 -104 -15 -9
-12 -25 5 -25 8 0 15 -4 15 -10 0 -5 -4 -10 -10 -10 -5 0 -10 -7 -10 -15 0 -8
6 -15 14 -15 8 0 17 -13 21 -29 3 -16 13 -35 21 -42 8 -6 14 -17 14 -24 0 -7
6 -18 14 -24 23 -19 26 -70 4 -82 -12 -6 -18 -6 -18 1 0 5 -7 10 -15 10 -14 0
-19 -14 -16 -50 0 -9 -2 -11 -5 -3 -3 8 -16 10 -35 6 -18 -3 -29 -1 -29 6 0
19 -21 12 -52 -19 -36 -36 -47 -37 -94 -5 -43 29 -52 31 -50 9 0 -9 -4 -19
-10 -21 -14 -5 -24 30 -17 58 5 18 11 20 40 16 21 -4 54 1 82 10 25 9 56 16
67 15 41 -3 61 45 42 100 -13 37 -38 44 -60 16 -17 -22 -19 -22 -32 -5 -7 9
-21 17 -31 17 -13 0 -16 5 -11 25 7 26 7 26 -24 10 -16 -8 -30 -21 -30 -28 0
-7 -9 -20 -20 -30 -11 -9 -20 -24 -20 -33 0 -10 -6 -13 -19 -9 -28 9 -51 -5
-51 -30 0 -13 -5 -27 -10 -30 -18 -11 2 -27 26 -21 17 5 24 2 24 -8 0 -21 -19
-31 -33 -17 -6 6 -18 11 -27 11 -22 0 -50 31 -50 56 0 10 -5 26 -10 34 -17 25
-31 -9 -24 -56 5 -34 2 -45 -16 -61 -18 -17 -19 -21 -6 -26 22 -9 20 -30 -6
-88 -15 -32 -29 -49 -41 -49 -12 0 -16 -4 -11 -12 5 -9 2 -8 -9 1 -16 13 -16
14 0 26 16 12 16 14 0 29 -9 10 -21 14 -27 11 -5 -3 -10 -2 -10 3 0 15 26 22
39 9 6 -6 11 -8 11 -4 0 4 -9 16 -20 27 -11 11 -20 32 -20 48 0 15 -7 36 -15
46 -12 16 -17 17 -30 6 -11 -9 -12 -16 -4 -26 13 -16 19 -64 8 -64 -4 0 -11 5
-14 11 -5 6 -12 4 -20 -7 -8 -11 -28 -18 -56 -20 -45 -2 -63 -20 -36 -35 17
-10 12 -42 -9 -60 -8 -6 -14 -15 -14 -20 0 -15 30 -10 36 5 9 23 35 28 48 10
11 -15 14 -15 29 0 11 11 14 26 10 51 -7 45 16 48 46 6 18 -24 19 -32 8 -55
-7 -14 -16 -24 -22 -22 -15 5 -46 -14 -40 -25 8 -12 95 -12 95 0 0 5 24 1 52
-10 65 -24 75 -24 55 -1 -15 16 -15 19 3 30 11 6 25 10 32 7 15 -5 64 32 54
42 -3 4 -12 1 -18 -5 -16 -16 -58 -15 -58 1 0 6 -3 22 -6 35 -5 18 -2 22 15
22 12 0 21 -6 21 -15 0 -8 7 -15 15 -15 8 0 15 7 15 15 0 8 -3 15 -8 15 -4 0
-6 18 -4 41 4 34 7 40 26 37 15 -2 20 -9 19 -26 -2 -12 1 -22 6 -22 5 0 7 -9
4 -20 -4 -15 0 -20 16 -20 12 0 21 6 21 15 0 8 8 15 17 15 9 0 25 8 35 17 23
20 53 7 53 -23 0 -15 7 -19 31 -17 21 2 37 -4 49 -17 21 -23 13 -36 -25 -43
-16 -3 -10 -5 17 -6 43 -1 66 15 42 30 -11 7 -10 12 8 30 16 16 28 20 48 15
23 -6 26 -10 20 -34 -3 -15 -11 -28 -16 -30 -5 -2 -9 -11 -9 -19 0 -12 3 -13
13 -5 7 6 22 9 34 6 29 -8 38 12 19 41 -13 20 -13 25 -1 35 19 16 19 30 0 30
-8 0 -15 7 -15 15 0 8 9 15 20 15 11 0 20 -4 20 -10 0 -5 11 -10 25 -10 14 0
25 -4 25 -10 0 -5 -7 -10 -17 -10 -15 0 -15 -2 1 -19 19 -21 15 -37 -16 -59
-10 -7 -18 -19 -18 -26 0 -8 -7 -19 -15 -26 -10 -8 -12 -17 -6 -23 13 -13 31
0 31 23 0 25 17 35 36 19 8 -6 17 -9 21 -5 3 3 1 6 -5 6 -7 0 -12 7 -12 16 0
9 7 14 17 12 13 -2 17 -18 19 -82 2 -43 6 -81 9 -85 3 -3 14 0 23 5 27 18 24
73 -10 163 -6 17 -4 32 11 56 18 30 15 58 -5 55 -5 0 -13 26 -17 60 -9 60 -24
78 -34 40 -3 -11 -9 -20 -15 -20 -5 0 -5 7 0 18 5 9 7 23 5 30 -3 7 -1 18 4
25 13 18 16 134 4 142 -17 10 6 46 24 39 23 -9 18 22 -8 50 -16 17 -27 22 -38
15 -23 -14 -35 -10 -47 16 -23 51 -2 79 26 34 7 -11 18 -18 25 -16 19 7 47
-12 59 -41 l12 -27 4 25 c3 16 -3 30 -17 41 -12 10 -21 23 -21 29 0 7 -7 10
-15 6 -9 -3 -25 4 -37 16 l-21 21 39 -8 c85 -17 109 -7 121 48 3 15 7 27 9 27
2 0 18 -9 36 -21 18 -12 25 -19 16 -15 -13 4 -18 0 -18 -14 0 -11 7 -20 15
-20 17 0 20 -16 5 -25 -20 -12 -9 -25 21 -25 27 0 30 -3 27 -27 -3 -23 2 -28
31 -36 l35 -9 -30 -13 c-16 -8 -48 -19 -70 -25 -30 -7 -43 -17 -48 -33 -11
-41 -7 -47 32 -47 25 0 43 -7 55 -20 24 -29 21 -35 -8 -16 -30 20 -45 20 -45
1 0 -8 4 -15 9 -15 5 0 11 -14 15 -31 5 -26 9 -29 28 -23 31 9 48 24 48 40 0
31 28 12 32 -21 5 -40 1 -48 -46 -100 -20 -21 -36 -47 -36 -58 0 -18 -8 -18
-59 1 -10 4 -12 -2 -6 -27 6 -28 4 -33 -14 -38 -12 -3 -21 -12 -21 -20 0 -11
-7 -13 -26 -9 -19 5 -25 3 -22 -6 3 -7 14 -14 26 -16 15 -2 21 -10 19 -24 -3
-28 17 -34 29 -9 6 14 13 18 22 12 11 -7 11 -11 -1 -23 -11 -11 -12 -19 -5
-33 22 -39 -42 -114 -107 -125 -28 -5 -30 -8 -33 -55 -2 -33 -9 -54 -20 -63
-15 -11 -15 -14 -2 -22 8 -5 19 -11 24 -13 17 -6 -4 -25 -35 -32 -26 -6 -30
-11 -25 -30 4 -14 1 -25 -7 -28 -6 -2 -9 -7 -5 -11 3 -4 15 -2 27 5 24 16 35
8 26 -20 -9 -28 -55 -29 -62 -1 -3 11 -10 20 -15 20 -6 0 -8 -6 -5 -14 3 -7 1
-18 -5 -24 -16 -16 -48 4 -48 29 0 11 -4 17 -10 14 -5 -3 -10 -14 -10 -24 0
-10 -7 -24 -15 -31 -23 -19 -1 -29 46 -23 34 5 39 3 39 -14 0 -12 11 -25 28
-33 l27 -13 -25 -6 c-14 -4 -26 -16 -28 -26 -3 -15 -1 -17 7 -9 7 6 32 9 56 7
41 -4 45 -2 45 18 0 12 -7 31 -16 40 -13 15 -15 24 -6 46 6 16 13 42 16 59 4
28 3 31 -14 27 -23 -6 -26 9 -7 26 10 7 16 8 24 0 8 -8 15 -6 25 10 7 11 18
21 24 21 16 0 45 -35 37 -44 -4 -4 2 -9 14 -12 28 -8 37 -33 19 -53 -9 -10
-13 -26 -9 -39 4 -19 1 -22 -22 -22 -24 0 -26 -3 -21 -26 8 -31 -25 -74 -56
-74 -10 0 -18 -7 -18 -15 0 -9 9 -15 25 -15 18 0 26 -7 31 -25 8 -31 4 -35
-32 -40 -16 -2 -31 -4 -33 -4 -3 -1 0 -6 7 -13 8 -8 15 -8 26 1 13 11 16 9 22
-13 3 -15 4 -36 1 -48 -4 -14 0 -26 11 -35 33 -25 -28 -37 -90 -18 -21 7 -33
-12 -19 -29 9 -11 6 -12 -15 -8 -14 2 -28 11 -31 19 -4 10 -9 11 -19 2 -25
-21 -15 -36 28 -43 33 -5 45 -3 55 9 10 15 17 15 50 5 21 -7 46 -17 57 -22 12
-6 22 -6 28 0 12 12 77 -14 91 -35 11 -18 37 -16 37 2 0 9 -9 15 -21 15 -14 0
-19 5 -16 15 4 8 2 17 -3 20 -13 8 -13 25 0 25 6 0 10 -7 10 -15 0 -21 10 -19
37 7 13 12 26 18 30 13 5 -4 2 -10 -4 -12 -19 -7 -16 -20 7 -26 10 -3 27 1 37
9 12 9 14 13 4 14 -9 0 -11 8 -7 25 5 18 2 25 -9 25 -24 0 -17 19 10 26 29 7
30 11 9 36 -13 14 -14 21 -5 32 10 12 6 15 -19 21 -41 9 -48 0 -22 -28 29 -30
28 -40 -2 -35 -36 7 -51 -5 -37 -30 6 -11 8 -23 4 -25 -28 -14 -107 -28 -130
-22 -27 7 -28 7 -7 18 18 10 20 14 8 25 -7 6 -20 12 -29 12 -8 0 -15 5 -15 10
0 6 4 10 10 10 5 0 9 6 7 12 -1 7 13 19 31 27 20 9 31 20 27 29 -5 13 17 43
32 43 4 0 8 19 7 42 -1 27 4 46 14 53 14 10 13 12 -6 18 -12 4 -26 5 -31 2 -5
-4 -17 -3 -26 0 -14 6 -13 8 5 21 11 8 25 11 31 8 5 -4 18 0 28 9 10 9 29 15
42 14 20 -3 24 2 24 22 0 26 14 30 49 15 27 -12 72 18 68 46 -2 11 1 19 6 16
12 -8 52 21 52 37 0 8 -7 17 -16 20 -14 5 -14 9 -3 22 7 9 14 23 15 32 2 8 9
19 16 23 11 7 11 9 0 9 -7 0 -20 -7 -28 -15 -18 -17 -34 -20 -34 -5 0 6 -4 10
-10 10 -5 0 -10 -9 -10 -19 0 -18 -45 -39 -57 -27 -10 10 7 38 27 43 11 3 20
9 20 14 0 14 -7 11 -52 -21 -51 -38 -58 -37 -58 1 0 45 -25 31 -26 -15 -1 -48
-13 -58 -60 -54 -26 2 -42 9 -49 23 -5 11 -17 20 -25 20 -16 0 -16 3 -5 48 6
21 4 27 -9 27 -18 0 -21 16 -5 26 6 3 15 0 20 -7 7 -11 9 -10 9 4 0 10 4 16
10 12 5 -3 17 6 26 21 10 14 28 30 42 35 20 8 22 12 12 24 -12 15 -5 55 11 55
5 0 9 11 9 25 0 14 8 29 20 35 11 6 20 16 20 21 0 6 11 25 25 41 14 16 22 34
19 40 -4 6 1 17 11 24 14 10 15 16 6 27 -17 21 13 87 39 87 11 0 20 -4 20 -10
0 -5 -4 -10 -10 -10 -5 0 -7 -7 -4 -15 4 -8 1 -15 -5 -15 -6 0 -11 -9 -11 -20
0 -51 32 8 34 65 1 6 11 16 23 22 12 7 24 22 28 33 6 20 35 28 35 10 0 -5 -5
-10 -12 -10 -9 0 -8 -3 1 -12 11 -10 14 -10 18 0 6 14 39 16 48 2 3 -5 17 -10
31 -10 26 0 31 -9 12 -28 -17 -17 0 -28 21 -15 21 13 31 8 31 -15 0 -11 -8
-13 -31 -8 -36 7 -59 -7 -59 -35 0 -15 -6 -17 -37 -12 -21 3 -44 10 -51 16 -9
7 -17 6 -25 -2 -9 -10 -8 -15 7 -27 16 -11 17 -17 8 -26 -18 -18 -15 -27 8
-25 12 1 23 11 26 24 4 13 12 23 20 23 16 0 19 -16 5 -24 -5 -3 -7 -15 -4 -26
3 -11 0 -20 -6 -20 -6 0 -11 -4 -11 -8 0 -14 76 -8 94 7 20 17 14 24 -22 29
-54 7 -45 17 26 27 47 6 52 5 50 -12 -3 -41 3 -61 20 -66 12 -2 22 -17 25 -37
6 -28 10 -31 29 -25 13 4 37 6 54 6 25 -1 33 3 37 21 8 30 4 32 -34 13 -31
-16 -33 -16 -46 1 -17 24 -17 26 14 48 26 19 26 19 43 -1 11 -15 27 -20 55
-19 38 1 40 -1 42 -29 2 -23 1 -26 -5 -11 -8 18 -9 18 -25 -5 -22 -30 -21 -41
1 -37 11 2 16 -3 14 -14 -2 -10 2 -18 8 -18 6 0 9 4 5 9 -3 5 -2 12 3 15 4 2
19 -27 32 -65 28 -83 56 -114 111 -123 53 -8 149 10 216 40 28 13 55 24 58 24
3 0 25 9 49 19 37 18 44 26 60 76 19 60 16 83 -5 43 -24 -45 -154 -118 -212
-118 -45 0 -77 15 -77 35 0 8 -7 15 -15 15 -8 0 -31 23 -51 50 -20 28 -40 47
-46 44 -7 -5 -8 33 -3 117 4 68 8 125 9 125 0 1 31 -6 67 -15 63 -15 66 -17
89 -63 13 -27 27 -48 30 -48 4 0 28 14 55 32 l48 32 -31 8 c-18 5 -32 10 -32
12 0 3 86 4 190 5 105 0 190 -1 190 -2 0 -1 -10 -22 -23 -47 -38 -76 -68 -120
-82 -120 -17 0 -54 -61 -80 -130 -16 -41 -26 -56 -45 -60 -18 -4 -25 -13 -26
-30 -1 -44 -4 -50 -19 -50 -17 0 -20 16 -6 25 10 6 11 45 1 45 -16 -1 -30 -19
-24 -33 3 -10 1 -17 -5 -17 -6 0 -11 -4 -11 -10 0 -5 6 -10 13 -10 18 0 44
-49 32 -58 -6 -4 -10 -18 -10 -32 0 -15 -6 -25 -15 -26 -43 -3 -50 -5 -50 -14
0 -6 3 -10 8 -9 23 4 52 -16 52 -35 0 -39 -12 -65 -31 -71 -10 -4 -19 -15 -19
-26 0 -24 -17 -25 -22 -2 -3 15 -14 18 -65 18 -33 0 -59 -3 -56 -7 2 -5 -4 -8
-15 -8 -15 0 -18 -6 -14 -30 2 -16 8 -30 12 -30 4 0 8 -15 7 -33 -1 -29 -4
-33 -24 -29 -18 3 -22 9 -17 28 5 21 3 24 -20 24 -30 0 -33 -7 -8 -26 16 -13
16 -15 0 -24 -9 -6 -15 -17 -12 -24 10 -26 -31 -56 -71 -51 -27 4 -35 1 -35
-11 0 -8 5 -12 10 -9 6 3 10 -1 10 -9 0 -12 -9 -14 -42 -10 -24 3 -48 12 -54
20 -14 18 -32 18 -49 0 -12 -12 -12 -15 0 -20 8 -3 22 -3 30 0 8 4 15 1 15 -5
0 -6 -7 -11 -15 -11 -8 0 -15 -5 -15 -10 0 -6 -11 -8 -25 -4 -28 7 -36 -12
-10 -23 9 -3 15 -15 13 -27 -2 -16 3 -22 25 -24 28 -3 39 -32 12 -32 -8 0 -15
-7 -15 -15 0 -19 -7 -19 -26 -1 -8 8 -14 26 -14 41 0 18 -7 28 -25 35 -27 10
-31 20 -15 36 6 6 2 10 -13 12 -15 1 -26 -6 -32 -21 -13 -28 -53 -25 -77 6
-14 19 -18 20 -23 6 -3 -9 -16 -17 -28 -17 -12 0 -26 -1 -32 -3 -5 -2 -24 4
-40 13 l-30 16 -19 -42 c-10 -23 -32 -50 -47 -59 -16 -9 -29 -21 -29 -27 0
-14 37 -13 42 2 2 6 24 13 49 13 64 3 129 16 129 27 0 5 9 4 19 -2 11 -5 29
-10 40 -10 24 0 28 -15 6 -24 -20 -7 -19 -36 1 -36 13 0 11 -5 -7 -31 -15 -22
-25 -27 -32 -20 -18 18 -25 12 -23 -21 1 -25 -4 -34 -18 -36 -14 -3 -17 0 -12
12 3 9 9 23 12 31 4 11 0 15 -15 15 -12 0 -21 6 -21 13 0 22 23 37 58 37 21 0
31 4 26 11 -3 6 -16 8 -29 5 -15 -4 -25 -1 -29 10 -10 25 -48 -2 -44 -31 2
-15 -4 -30 -16 -38 -19 -14 -14 -43 5 -32 5 4 9 -1 9 -9 0 -21 -26 -21 -34 0
-4 10 -14 14 -26 11 -15 -4 -20 0 -20 15 0 12 7 26 17 33 18 13 10 35 -13 35
-13 0 -19 -13 -15 -34 1 -4 -6 -14 -15 -21 -16 -11 -16 -12 0 -18 9 -4 21 -19
27 -34 8 -21 7 -28 -6 -35 -8 -5 -15 -18 -15 -28 0 -24 -13 -25 -35 -3 -14 14
-18 14 -26 2 -5 -8 -6 -23 -3 -34 3 -11 8 -28 10 -38 6 -21 -22 -35 -39 -18
-8 8 -7 11 7 11 10 0 14 5 11 11 -4 6 -9 8 -12 5 -3 -3 -14 -1 -24 5 -23 12
-25 45 -4 53 8 3 15 17 15 31 0 26 -15 34 -23 13 -2 -7 -8 -10 -12 -6 -4 4 -2
15 5 23 11 13 11 19 -3 33 -23 22 -44 3 -28 -26 12 -23 -9 -48 -34 -39 -8 4
-17 2 -21 -4 -7 -13 15 -41 27 -33 11 6 24 -24 15 -34 -4 -3 -11 0 -16 8 -8
12 -10 12 -16 -3 -11 -29 -34 -20 -34 13 0 21 -5 30 -16 30 -8 0 -13 4 -10 9
6 9 -29 23 -37 15 -8 -8 5 -54 14 -48 5 3 9 -2 9 -10 0 -9 -8 -16 -19 -16 -11
0 -23 -5 -27 -11 -3 -6 -17 -8 -30 -5 -15 4 -24 2 -24 -5 0 -7 -11 -9 -30 -6
-33 7 -34 5 -31 -58 2 -30 -3 -45 -18 -59 -19 -17 -21 -17 -21 -3 0 10 -4 17
-10 17 -5 0 -10 -4 -10 -8 0 -14 23 -32 39 -31 18 0 69 59 52 59 -6 0 -11 11
-11 24 0 18 5 24 25 24 15 0 25 -6 25 -14 0 -8 -4 -14 -9 -14 -5 0 -11 -18
-13 -40 -3 -39 -3 -40 28 -40 21 0 34 6 39 18 6 16 7 16 20 -1 9 -12 23 -17
41 -15 33 4 43 24 16 32 -13 5 -18 13 -15 25 5 18 -23 49 -34 37 -4 -4 -2 -15
4 -25 15 -24 6 -33 -18 -20 -36 19 -13 77 25 63 9 -3 22 -1 30 5 16 14 26 4
26 -26 0 -18 7 -25 30 -29 25 -5 27 -8 15 -20 -7 -8 -18 -14 -24 -14 -6 0 -11
-7 -11 -15 0 -13 25 -15 161 -15 104 0 158 3 154 10 -3 5 -2 10 4 10 6 0 17
12 24 26 9 17 17 23 21 15 4 -6 0 -18 -8 -27 -9 -9 -14 -20 -11 -25 8 -12 275
-12 275 0 0 6 -4 13 -10 16 -18 11 -10 23 14 21 18 -1 24 -6 23 -21 -2 -19 5
-20 125 -23 111 -2 127 -1 122 13 -4 10 -14 13 -30 9 -18 -5 -24 -2 -24 9 0 9
5 19 10 22 15 9 12 25 -5 25 -8 0 -15 7 -15 15 0 18 21 20 38 3 9 -9 12 -7 12
12 0 20 2 22 10 10 5 -8 10 -26 10 -38 0 -13 8 -37 17 -53 l17 -29 787 0 c729
0 788 1 791 17 3 15 4 15 20 0 14 -14 41 -17 187 -16 99 0 171 4 171 10 0 5 7
9 15 9 8 0 15 -4 15 -10 0 -5 11 -10 25 -10 18 0 25 5 25 20 0 11 -4 20 -10
20 -5 0 -10 7 -10 15 0 8 5 15 10 15 13 0 13 43 -1 57 -8 8 -19 8 -39 0 -16
-6 -33 -8 -37 -4 -10 10 18 28 35 22 6 -2 12 0 12 5 0 6 9 10 19 10 18 0 20 7
20 77 0 42 -2 80 -5 85 -3 4 -18 1 -34 -7 -41 -21 -53 -19 -38 5 7 11 18 20
24 20 6 0 19 9 30 21 16 17 16 22 4 29 -29 18 -87 15 -107 -6 -20 -20 -35 -17
-28 4 3 11 -3 30 -16 46 -27 34 -20 41 28 30 21 -4 51 -8 66 -8 15 -1 32 -7
36 -15 8 -12 12 -12 26 2 15 16 15 18 -9 27 -14 5 -26 15 -26 21 0 8 4 8 15
-1 23 -19 34 -3 33 49 0 40 -4 50 -19 54 -10 3 -19 10 -19 17 0 6 4 9 8 6 11
-6 38 41 29 50 -10 10 -47 -7 -47 -22 0 -8 -5 -14 -11 -14 -6 0 -9 6 -6 13 7
18 -30 60 -47 54 -8 -3 -29 3 -47 12 -35 19 -41 21 -59 21 -5 0 -10 7 -10 16
0 13 7 15 35 10 27 -5 37 -3 41 9 3 8 12 15 20 15 7 0 16 11 20 25 5 20 9 23
20 14 16 -13 54 -3 54 15 0 8 10 21 23 29 l22 16 -22 0 c-23 1 -32 16 -13 23
6 2 6 9 0 18 -8 12 -13 13 -29 3 -11 -7 -23 -9 -26 -4 -3 6 -18 6 -37 0 -17
-5 -36 -5 -42 -1 -22 16 -92 0 -81 -18 3 -5 19 -10 35 -10 20 0 31 -6 35 -20
3 -11 11 -20 16 -20 5 0 9 -14 9 -31 0 -26 -3 -29 -14 -20 -7 6 -21 9 -30 5
-15 -6 -22 10 -17 39 1 8 -12 10 -54 7 -31 -2 -56 -26 -48 -47 8 -20 -5 -16
-34 11 l-26 25 37 22 38 22 -26 16 c-14 9 -26 20 -26 26 0 15 -67 34 -79 22
-7 -7 -19 -6 -38 2 -19 9 -29 9 -31 2 -2 -6 -10 -11 -17 -11 -7 0 -15 -6 -18
-12 -3 -9 -11 -7 -27 7 -12 11 -24 19 -26 18 -2 -2 -10 -3 -16 -3 -8 1 -6 6 5
14 15 12 13 14 -23 20 -30 5 -40 11 -40 25 0 10 -7 24 -15 31 -12 10 -16 9
-21 -4 -3 -9 -11 -13 -18 -9 -10 7 -66 14 -66 8 0 -2 16 -10 36 -20 23 -11 34
-22 30 -31 -3 -8 1 -14 9 -14 8 0 15 -4 15 -10 0 -5 -13 -10 -29 -10 -21 0
-32 -6 -36 -20 -3 -11 -9 -20 -13 -20 -13 1 -46 30 -34 30 6 0 23 11 38 25
l27 25 -34 0 c-38 0 -63 27 -52 56 5 14 3 15 -13 5 -66 -37 -69 -43 -71 -148
-4 -150 -7 -181 -18 -191 -11 -10 -127 -46 -195 -61 -69 -15 -401 -35 -454
-27 -25 4 -52 14 -60 21 -12 13 -15 12 -20 0 -4 -11 -22 -15 -69 -15 l-65 0
-11 44 c-6 25 -11 66 -11 91 0 39 -3 46 -16 41 -13 -5 -15 -1 -10 18 17 67 51
123 110 182 36 34 69 71 75 82 6 11 35 34 63 51 77 45 97 65 105 103 7 36 29
69 66 98 24 19 24 19 54 -8 16 -15 38 -34 48 -42 17 -14 18 -13 12 3 -4 11 -2
17 7 17 8 0 18 -12 23 -26 l8 -25 28 25 c16 14 30 26 32 26 11 0 100 -137 130
-201 19 -41 34 -65 35 -54 0 25 -45 122 -102 217 -38 64 -60 137 -37 122 5 -3
21 4 35 15 15 12 32 21 38 21 20 1 91 55 91 69 0 19 98 77 103 62 2 -7 15 -3
33 10 37 26 30 39 -7 15 -25 -17 -26 -17 -19 3 5 18 3 19 -25 11 -16 -5 -55
-23 -86 -40 -58 -34 -79 -34 -49 0 33 36 1 20 -40 -20 -22 -22 -45 -40 -51
-40 -6 0 -19 -9 -29 -20 -18 -20 -18 -19 -41 36 -14 34 -45 79 -81 117 -82 88
-115 112 -70 54 37 -49 53 -84 43 -95 -14 -13 -51 -15 -348 -16 -168 0 -309
-4 -313 -8 -4 -4 -18 -2 -32 3 -14 5 -28 7 -31 4 -3 -3 -16 2 -29 10 -49 33
-194 105 -209 105 -18 0 -157 46 -194 65 -14 7 -90 45 -170 86 -80 40 -182 91
-227 113 -46 23 -83 46 -83 52 0 6 -15 18 -32 25 -40 16 -108 76 -108 94 0 15
-15 21 -81 30 -60 8 -88 27 -71 48 10 12 26 14 68 10 37 -4 54 -2 54 6 0 6 -7
11 -15 11 -9 0 -34 9 -56 20 l-39 21 -25 -27 c-14 -15 -28 -24 -32 -20 -4 4
-3 10 3 14 6 4 14 17 18 30 4 12 12 19 18 16 5 -3 16 4 25 15 13 19 21 21 61
16 l47 -6 -40 24 c-41 24 -65 25 -65 1 0 -8 -7 -14 -15 -14 -17 0 -19 13 -6
38 5 11 3 30 -5 52 -12 32 -13 33 -20 13 -9 -31 -22 -29 -35 5 l-11 27 -23
-30 c-24 -29 -24 -29 -5 -48 29 -26 26 -65 -5 -77 -21 -8 -24 -14 -19 -34 9
-37 -4 -51 -27 -30 -15 13 -16 20 -7 31 9 11 9 16 -1 23 -25 15 -51 -1 -51
-31 0 -19 -5 -29 -15 -29 -11 0 -14 7 -11 25 3 13 0 27 -5 30 -5 4 -9 13 -9
22 0 14 2 14 18 1 19 -16 56 -13 46 4 -4 6 -7 25 -6 42 1 38 -13 56 -38 49
-19 -5 -21 -2 -24 37 -1 8 -10 15 -21 15 -16 0 -20 6 -19 33 1 17 -2 32 -6 32
-5 0 -16 7 -24 16 -19 19 -22 84 -3 84 6 0 50 -12 97 -26 47 -15 113 -34 147
-43 44 -11 63 -21 63 -32 0 -11 17 -20 55 -29 30 -7 55 -16 55 -19 0 -3 -13
-15 -30 -26 -26 -17 -27 -21 -12 -29 9 -6 31 -11 47 -12 17 -1 44 -5 60 -9
l30 -6 -25 15 c-14 8 -40 15 -57 16 -37 0 -41 9 -15 33 53 48 127 19 248 -98
43 -41 83 -75 87 -75 5 0 5 -4 2 -10 -3 -6 1 -7 9 -4 9 3 16 12 16 20 0 19 -2
19 132 -18 114 -32 117 -34 112 -58 -10 -45 -13 -50 -33 -50 -14 0 -18 -5 -14
-21 4 -16 8 -17 14 -7 6 9 9 5 9 -14 0 -27 12 -32 103 -42 64 -8 88 -18 81
-34 -18 -42 -10 -55 39 -68 53 -13 56 -6 4 11 -18 5 -31 15 -30 20 3 18 63 30
84 17 23 -15 59 -16 59 -2 0 6 3 10 8 10 12 0 32 -74 21 -81 -6 -3 7 -6 28 -7
21 -1 40 -8 45 -17 10 -17 28 -20 28 -4 0 6 12 26 26 45 15 19 25 36 23 38
-12 11 -48 15 -54 6 -9 -14 -68 -13 -83 2 -22 22 -13 45 28 63 22 10 40 22 40
27 0 11 65 -1 99 -18 14 -8 36 -14 47 -14 27 0 38 -26 16 -36 -25 -10 -44 -5
-64 19 -10 11 -20 18 -23 15 -3 -3 1 -11 10 -18 9 -8 15 -29 15 -56 0 -32 4
-44 15 -44 8 0 15 -4 15 -10 0 -5 -7 -10 -15 -10 -8 0 -19 -9 -25 -20 -10 -18
-4 -23 55 -50 65 -30 145 -41 145 -20 0 7 18 9 48 5 76 -9 355 45 416 81 22
14 57 32 76 40 93 42 104 50 111 78 4 15 14 36 22 45 8 9 26 37 40 63 20 37
23 49 13 57 -19 16 -140 3 -214 -22 l-64 -21 -46 24 c-31 17 -48 32 -50 48 -3
16 2 22 16 22 15 0 18 5 14 25 -3 20 -10 25 -33 25 -32 0 -48 17 -24 27 33 12
89 -10 110 -44 20 -32 35 -42 35 -22 0 18 -54 79 -71 79 -8 0 -24 7 -35 15
-10 8 -27 15 -36 15 -16 0 -16 2 3 21 11 11 30 24 42 28 20 8 20 9 -13 26 -24
12 -35 14 -38 6 -3 -9 -7 -9 -18 0 -23 19 -16 43 22 80 41 39 55 62 63 103 6
29 7 29 51 -37 36 -55 47 -66 64 -61 26 8 45 24 27 24 -25 0 1 20 27 21 l27 1
-28 8 c-42 13 -55 27 -49 55 3 20 0 25 -17 25 -11 0 -21 5 -21 10 0 6 10 10
23 10 12 0 29 9 37 20 10 14 26 20 52 20 32 0 38 -3 38 -21 0 -21 1 -21 47 -2
7 3 14 -15 18 -51 4 -31 11 -56 16 -56 5 0 9 6 10 13 0 6 7 -6 15 -28 8 -22
12 -50 9 -62 -6 -25 19 -33 29 -10 3 6 3 1 0 -12 -4 -16 -3 -21 5 -17 6 4 11
2 11 -5 0 -8 4 -8 13 -2 6 6 30 16 52 23 22 7 62 24 90 36 64 30 90 30 120 -1
39 -38 35 -94 -12 -146 -20 -22 -49 -47 -64 -55 -39 -20 -118 -19 -126 2 -10
26 -23 -5 -23 -57 0 -38 5 -50 33 -77 28 -27 43 -33 83 -35 l49 -2 2 -45 c1
-52 19 -106 37 -113 7 -3 18 -24 25 -48 7 -24 17 -51 22 -59 102 -174 104
-186 61 -373 -41 -177 -85 -451 -66 -410 4 10 12 9 35 -2 16 -9 30 -15 31 -14
2 1 20 -4 42 -11 31 -10 43 -10 62 1 29 15 32 33 4 24 -14 -5 -27 0 -40 17
-12 13 -19 17 -18 9 7 -37 -73 -17 -94 24 -11 19 -10 19 9 3 24 -22 39 -23 47
-2 5 13 9 14 21 4 13 -10 15 -8 15 14 0 27 9 33 26 16 5 -5 20 -7 32 -3 17 4
21 10 16 27 -3 11 -13 26 -21 33 -13 10 -13 15 -4 27 6 7 13 28 14 45 1 17 8
31 15 31 6 0 12 -4 12 -10 0 -5 13 -10 29 -10 34 0 56 -25 72 -83 9 -36 32
-43 28 -9 -2 10 1 31 5 49 4 19 3 40 -4 52 -10 19 -8 21 19 21 20 0 36 -8 49
-25 11 -14 27 -25 35 -25 9 0 19 -5 22 -10 4 -7 11 -8 18 -1 9 6 12 0 14 -25
2 -36 -19 -48 -31 -18 -3 8 -10 13 -16 9 -6 -4 -5 -13 3 -26 10 -17 20 -19 57
-15 64 7 90 16 90 32 0 8 -10 14 -24 14 -34 0 -39 24 -9 49 24 22 25 22 62 4
21 -10 36 -24 33 -31 -2 -7 1 -12 6 -12 5 0 12 9 15 20 8 31 34 24 53 -15 9
-19 23 -35 30 -35 22 0 17 30 -8 51 l-23 19 22 6 c21 6 21 9 22 235 l1 229
-22 -1 c-26 0 -70 -17 -50 -18 18 -1 10 -36 -8 -36 -11 0 -14 10 -12 40 4 50
16 64 42 47 10 -6 26 -9 35 -6 20 8 19 54 -2 69 -17 13 -17 14 0 32 11 13 17
36 17 69 0 35 -3 45 -10 34 -5 -8 -10 -25 -10 -38 0 -12 -8 -25 -17 -29 -10
-3 -26 -13 -35 -20 -26 -23 -38 -7 -38 48 0 36 4 49 14 49 8 0 16 -9 18 -20 6
-40 23 -21 50 56 34 98 40 224 11 224 -17 1 -17 1 0 14 15 12 17 37 17 260 0
212 -2 246 -15 246 -8 0 -15 8 -15 19 0 14 -6 17 -26 13 -36 -7 -24 11 22 33
25 12 33 20 25 28 -7 7 -15 6 -26 -3 -31 -26 -28 1 3 30 l32 29 0 404 c0 222
-3 407 -6 410 -8 8 -64 -31 -64 -44 0 -5 7 -9 15 -9 22 0 18 -28 -5 -35 -11
-3 -21 -9 -21 -13 -1 -4 -3 -18 -5 -32 -1 -14 -6 -38 -10 -53 l-7 -28 38 15
c45 19 55 15 20 -8 -27 -18 -33 -41 -12 -49 19 -7 20 -108 2 -143 -8 -16 -15
-50 -15 -76 0 -41 -3 -48 -19 -48 -11 0 -21 6 -24 13 -2 6 -7 9 -11 5 -4 -3 0
-20 9 -38 15 -29 15 -33 0 -57 -15 -22 -15 -26 -1 -42 26 -28 20 -43 -16 -39
l-33 3 1 -50 c1 -27 7 -51 13 -53 6 -2 11 -10 11 -17 0 -8 7 -18 17 -23 13 -8
15 -19 10 -62 -4 -30 -11 -58 -17 -64 -18 -18 -34 12 -31 59 2 39 0 45 -17 45
-10 0 -29 -9 -42 -20 -21 -18 -20 -25 3 -21 4 0 7 -3 7 -9 0 -5 7 -10 15 -10
8 0 15 -9 15 -20 0 -11 -4 -20 -9 -20 -5 0 -13 9 -16 20 -7 23 -20 25 -54 6
-25 -14 -51 -11 -51 4 0 5 12 8 28 7 38 -3 36 24 -3 35 -22 6 -33 4 -41 -7
-18 -24 -27 -17 -20 17 5 24 1 37 -15 54 -31 33 -34 95 -3 64 24 -24 50 6 44
49 -1 10 3 9 16 -4 17 -16 18 -16 33 16 12 25 23 34 41 34 31 0 40 12 34 45
-2 14 -6 52 -9 85 -2 33 -7 79 -11 102 -4 29 -2 48 6 58 11 13 10 18 -3 28
-13 10 -15 19 -7 52 5 22 7 49 4 61 -3 12 2 39 11 60 10 21 20 53 24 69 4 17
16 34 28 40 24 10 38 65 16 65 -30 0 -113 -114 -113 -156 0 -9 -9 -29 -20 -44
-30 -42 -36 -87 -15 -110 22 -25 13 -63 -19 -78 -20 -9 -23 -8 -22 6 1 13 -8
17 -36 17 -20 0 -40 3 -44 8 -4 4 -16 7 -26 7 -11 0 -18 7 -18 20 0 14 -7 20
-23 20 -13 0 -32 7 -43 15 -29 22 -36 18 -32 -17 2 -25 8 -33 22 -33 11 0 21
-6 24 -13 2 -6 11 -12 19 -12 10 0 13 -6 9 -16 -3 -9 -6 -18 -6 -21 0 -3 -7 0
-15 7 -12 10 -17 6 -32 -24 -19 -42 -48 -45 -49 -6 0 14 -4 26 -10 27 -5 1 -8
-11 -8 -27 2 -27 -1 -29 -47 -35 -48 -7 -48 -7 -42 -38 7 -39 13 -48 13 -20 0
29 20 42 53 36 35 -7 34 -26 -3 -53 -16 -11 -27 -27 -24 -34 3 -8 -4 -16 -15
-19 -32 -8 -25 -27 12 -34 17 -4 35 -6 40 -5 4 1 7 -7 7 -17 0 -10 7 -22 16
-25 8 -3 12 -10 9 -16 -8 -13 -35 -13 -35 1 0 5 5 7 12 3 7 -4 8 -3 4 4 -9 14
-56 16 -56 3 0 -6 5 -13 11 -17 13 -8 -31 -32 -48 -26 -15 5 -34 58 -27 77 7
17 -19 31 -36 20 -8 -5 -7 -11 1 -21 10 -12 8 -16 -9 -20 -11 -3 -23 -17 -27
-31 -6 -24 -9 -25 -52 -18 -54 8 -73 14 -73 25 0 4 -12 20 -26 35 -14 15 -23
34 -19 42 3 9 0 21 -6 29 -5 7 -12 29 -14 48 -3 32 0 36 20 36 13 0 30 -10 39
-25 9 -14 23 -25 31 -25 8 0 18 -7 23 -16 5 -8 15 -16 23 -18 8 -1 27 -10 42
-20 34 -23 38 -19 41 33 4 45 -7 59 -29 41 -15 -12 -16 -11 -19 13 0 6 -11 13
-24 15 -28 4 -24 23 6 37 12 5 22 13 22 17 0 5 5 8 11 8 8 0 8 -4 0 -14 -9
-11 -6 -17 14 -30 14 -9 25 -23 25 -31 0 -37 31 -9 48 44 16 46 7 54 -33 29
-26 -14 -34 -16 -30 -6 7 18 -23 46 -33 31 -4 -5 -23 -12 -43 -16 -40 -6 -84
20 -84 50 0 26 -28 22 -35 -4 -3 -16 -9 -20 -19 -14 -16 10 -8 40 20 72 11 13
33 38 47 55 31 34 50 62 58 84 3 8 10 23 15 32 5 10 9 26 9 36 0 11 8 26 18
36 11 9 19 31 20 51 1 30 -2 35 -22 35 -25 0 -33 -12 -47 -70 -28 -121 -31
-127 -61 -150 -24 -18 -39 -21 -74 -17 -30 3 -44 0 -48 -9 -6 -16 9 -27 42
-28 14 -1 27 -7 30 -15 3 -9 -2 -11 -18 -6 -15 5 -26 1 -35 -12 -13 -17 -14
-17 -15 0 0 9 -4 17 -10 17 -5 0 -10 7 -10 15 0 19 -24 19 -44 0 -8 -8 -22
-12 -30 -9 -24 9 -19 -10 10 -35 30 -26 27 -45 -9 -49 -22 -3 -27 1 -27 17 0
11 -9 25 -20 31 -15 8 -20 8 -18 -1 5 -20 -22 -22 -28 -2 -3 10 -9 25 -14 34
-12 22 -1 66 11 47 6 -9 9 -9 9 -1 0 6 -4 14 -9 17 -16 10 19 66 40 66 24 0
24 9 2 26 -10 7 -14 16 -10 20 4 5 12 3 16 -4 6 -10 10 -10 20 2 13 15 6 40
-8 31 -5 -2 -17 2 -27 10 -16 11 -17 17 -7 34 10 15 9 22 -2 31 -10 8 -17 6
-28 -11 -18 -24 -53 -19 -43 6 4 12 -5 15 -51 15 l-55 0 6 -31 c3 -17 6 -47 6
-65 0 -26 3 -32 16 -27 12 4 14 16 10 54 -5 43 -4 49 13 49 22 0 36 -16 44
-51 5 -20 15 -28 39 -33 31 -7 32 -8 14 -21 -11 -8 -17 -18 -13 -21 4 -4 -1
-12 -9 -19 -14 -10 -14 -15 -3 -32 10 -18 10 -28 -5 -67 -24 -62 -25 -115 -3
-131 22 -16 22 -44 0 -61 -17 -12 -16 -15 12 -44 24 -25 27 -33 15 -40 -8 -5
-18 -6 -22 -4 -4 3 -8 1 -8 -5 0 -5 6 -11 13 -14 9 -3 7 -10 -6 -24 -16 -18
-16 -21 -2 -26 8 -4 15 -14 15 -22 0 -9 4 -14 9 -10 6 3 9 -11 8 -34 -1 -34
-6 -41 -34 -55 -38 -18 -63 -21 -63 -6 0 6 -1 13 -2 17 -2 3 5 7 15 9 24 3 31
10 22 23 -8 14 -35 14 -35 1 0 -5 -4 -10 -10 -10 -5 0 -10 7 -10 15 0 8 -8 15
-17 16 -14 0 -13 3 5 11 28 14 31 40 14 111 -9 34 -8 37 11 37 16 0 18 3 9 12
-16 16 -15 65 1 71 9 3 9 9 -2 29 -7 15 -10 35 -6 47 4 14 1 31 -9 46 -10 15
-12 26 -6 30 14 9 8 125 -7 125 -12 0 -20 -32 -22 -90 -2 -39 -14 -55 -51 -64
-22 -6 -23 -5 -9 6 20 17 29 52 18 69 -6 10 -9 11 -9 2 0 -7 -7 -13 -15 -13
-8 0 -14 -5 -12 -12 1 -6 -9 -14 -22 -17 l-25 -7 33 -33 c32 -33 56 -79 46
-89 -3 -3 -5 0 -5 6 0 12 -34 11 -47 -2 -4 -4 -1 -11 7 -16 8 -5 11 -12 7 -17
-13 -12 -27 19 -20 44 5 24 -10 32 -23 11 -8 -12 -7 -103 2 -131 3 -9 9 -15
13 -12 5 2 9 -7 9 -22 0 -28 -18 -53 -37 -53 -6 0 -11 -6 -11 -14 0 -19 48
-49 66 -42 16 6 78 -16 87 -31 3 -5 8 -27 11 -49 4 -37 1 -43 -32 -69 -33 -25
-35 -26 -14 -4 27 31 28 39 2 39 -13 0 -20 -7 -20 -19 0 -19 -26 -48 -36 -39
-7 7 17 58 28 58 4 0 8 7 8 16 0 8 4 13 9 9 10 -6 7 27 -4 45 -12 19 -42 10
-53 -15 -6 -14 -19 -25 -27 -25 -14 0 -15 -10 -10 -64 5 -59 3 -66 -18 -83
-33 -26 -53 -63 -33 -63 8 0 17 -6 20 -12 3 -9 5 -8 4 2 -2 18 60 120 73 120
5 0 9 -9 9 -20 0 -11 -5 -20 -11 -20 -6 0 -9 -9 -6 -19 3 -12 -4 -28 -19 -42
-28 -26 -48 -82 -41 -110 4 -13 1 -19 -6 -16 -7 2 -106 35 -222 72 -115 37
-212 70 -215 72 -3 2 5 22 17 44 12 21 17 39 12 39 -5 0 -9 -4 -9 -10 0 -5 -9
-19 -19 -29 -16 -16 -24 -17 -60 -8 -36 10 -47 8 -78 -8 -69 -38 -76 -54 -38
-89 22 -21 23 -26 13 -59 -7 -22 -18 -37 -27 -37 -9 -1 -27 -7 -41 -15 l-25
-15 23 -6 c12 -3 22 -10 22 -15 0 -9 -107 26 -126 42 -8 6 -28 9 -46 6 -20 -2
-62 5 -103 18 -38 13 -144 46 -235 75 -91 29 -169 56 -174 60 -5 5 -2 20 8 35
14 21 20 24 32 14 8 -6 14 -18 14 -25 0 -27 17 -13 33 26 16 42 33 51 40 23 4
-14 5 -12 6 5 0 12 5 22 9 22 4 0 8 32 9 70 0 39 -3 70 -8 70 -5 0 -9 -12 -10
-27 0 -16 -4 -37 -8 -48 -8 -19 -8 -19 -20 4 -16 29 1 66 39 86 14 7 33 22 43
33 18 19 17 20 -12 35 -28 14 -32 14 -40 0 -4 -9 -13 -13 -20 -9 -18 11 -13
26 8 26 11 0 22 9 26 19 7 23 -14 61 -34 61 -30 0 1 14 35 16 40 2 59 21 42
41 -16 19 -35 16 -41 -7 -3 -11 -12 -20 -21 -20 -17 0 -12 24 11 52 8 9 13 27
11 39 -3 21 -4 21 -19 7 -13 -13 -18 -14 -34 -2 -36 27 -42 15 -20 -39 7 -16
4 -18 -16 -15 -19 2 -25 11 -30 43 -4 23 -3 43 3 46 6 4 7 16 3 28 -4 14 -1
31 9 45 14 22 14 24 -5 29 -17 5 -18 8 -7 32 11 25 13 25 25 9 7 -10 13 -24
13 -32 0 -12 23 -42 33 -42 2 0 2 11 0 24 -5 22 -2 24 30 23 20 0 34 -5 31 -9
-7 -11 7 -10 25 1 17 11 7 41 -14 41 -30 0 -66 31 -60 51 4 13 1 19 -8 19 -9
0 -17 -4 -19 -9 -1 -5 -12 -11 -23 -13 -21 -3 -22 3 -11 51 8 35 16 38 35 15
9 -11 21 -19 27 -17 6 2 17 -3 24 -12 8 -10 9 -15 1 -15 -22 0 -11 -18 19 -30
17 -7 30 -18 30 -24 1 -14 68 -48 81 -41 5 4 9 13 9 21 0 9 6 14 13 11 6 -2
11 -13 10 -23 -1 -10 0 -26 4 -34 3 -8 8 -28 10 -45 3 -16 9 -35 14 -41 17
-20 -3 -23 -24 -3 -25 23 -37 24 -37 3 0 -9 9 -18 21 -21 13 -4 18 -11 14 -21
-4 -10 3 -23 17 -34 23 -18 23 -18 3 -34 -13 -9 -16 -17 -9 -22 6 -4 14 -21
17 -39 6 -32 6 -32 -26 -26 -18 3 -33 10 -35 15 -8 20 -32 6 -32 -18 0 -22 -2
-25 -15 -14 -13 11 -15 8 -15 -14 0 -16 5 -26 15 -26 8 0 15 4 15 9 0 5 7 11
15 15 8 3 14 2 14 -2 -2 -15 14 -52 22 -52 5 0 14 11 19 25 5 14 14 25 19 25
15 0 19 -23 8 -45 -6 -11 -12 -73 -13 -137 -3 -110 -2 -119 18 -133 21 -14 21
-15 5 -33 -24 -27 -29 -60 -10 -70 8 -5 14 -12 14 -15 -3 -20 0 -28 8 -22 5 3
8 25 7 49 -3 39 -1 45 19 50 22 6 43 46 24 46 -5 0 -9 -6 -9 -12 -1 -8 -6 -7
-14 4 -16 21 -9 78 10 78 8 0 14 5 14 10 0 6 7 10 15 10 13 0 16 -4 15 -25 0
-3 8 -20 17 -38 10 -17 21 -43 24 -57 6 -24 7 -24 8 -2 0 12 6 22 11 22 6 0
10 9 10 19 0 10 8 22 17 25 15 6 15 9 3 16 -8 5 -14 26 -15 49 0 23 -6 46 -13
53 -14 14 -16 54 -2 63 9 6 3 35 -9 35 -9 0 -31 -51 -31 -72 0 -10 -6 -18 -14
-18 -16 0 -29 27 -20 42 5 7 -3 9 -20 6 -33 -7 -46 18 -39 72 8 64 13 80 28
80 8 0 15 5 15 11 0 6 -7 9 -15 5 -9 -3 -15 0 -15 8 0 8 6 16 13 19 8 3 6 9
-8 20 -15 12 -20 28 -22 69 0 29 -4 61 -8 71 -5 12 -2 17 9 17 12 0 14 7 10
30 -4 19 -2 30 5 30 21 0 24 -32 6 -62 -19 -33 -19 -33 36 -63 26 -14 27 -13
33 16 4 22 -2 41 -26 80 -25 41 -28 53 -17 60 12 7 11 11 -5 26 -13 13 -20 15
-23 6 -8 -23 -31 -14 -41 16 -12 34 -2 35 41 7 22 -15 30 -16 42 -6 24 20 43
-3 21 -25 -15 -15 -23 -55 -10 -55 11 0 64 65 64 78 0 8 6 12 15 8 18 -6 19 1
4 43 -8 23 -8 35 1 46 15 18 5 35 -22 35 -19 0 -20 -4 -14 -55 6 -51 5 -55
-15 -55 -18 0 -21 5 -17 30 3 17 1 33 -4 36 -14 9 -9 34 6 28 8 -3 16 3 19 15
5 20 1 21 -89 19 -91 -1 -94 -2 -94 -25 0 -12 -4 -23 -9 -23 -5 0 -11 -6 -14
-14 -4 -9 0 -12 12 -9 17 4 49 -22 39 -32 -2 -3 -20 -6 -39 -9 -25 -2 -35 -9
-40 -27 l-6 -24 -4 25 c-3 17 -11 26 -26 28 -13 2 -23 10 -23 17 0 8 -9 16
-20 20 -11 3 -25 18 -32 33 -9 19 -24 28 -52 34 -52 11 -60 1 -59 -68 1 -48
-1 -57 -18 -61 -10 -3 -19 -12 -19 -19 0 -8 -4 -14 -10 -14 -5 0 -10 9 -10 20
0 12 -11 31 -25 44 -14 13 -25 26 -25 30 0 12 38 6 43 -6 4 -8 6 -9 6 -2 1 7
-6 27 -14 45 -8 19 -14 27 -15 19 0 -14 -33 -50 -45 -50 -3 0 -5 7 -5 15 0 8
3 15 8 15 4 0 13 9 20 20 11 19 10 20 -29 20 l-41 0 6 -112z m659 -2173 c36
-1 43 -4 46 -25 l4 -25 8 25 c5 17 7 2 8 -47 l1 -72 -45 17 c-36 13 -51 14
-75 5 -27 -10 -32 -9 -41 9 -6 11 -9 21 -7 23 10 8 110 11 115 2 3 -5 10 -2
15 7 14 25 -15 50 -41 36 -31 -16 -66 -12 -86 10 -16 18 -17 20 -1 26 10 4 15
12 12 19 -8 22 6 26 26 8 11 -10 37 -17 61 -18z m1888 -880 c14 5 19 2 19 -14
0 -21 46 -51 68 -43 7 2 12 15 12 28 0 17 6 24 19 24 11 0 21 6 24 13 2 6 8 8
13 4 5 -4 4 -11 -2 -15 -6 -4 -11 -15 -11 -24 0 -17 58 -35 77 -23 6 3 10 -1
10 -9 0 -11 10 -16 33 -17 17 0 43 -2 55 -3 13 -2 26 3 29 11 8 21 20 15 25
-12 4 -16 -1 -30 -14 -42 -19 -17 -20 -17 -33 0 -17 23 -28 22 -20 -3 7 -23
-10 -50 -30 -50 -9 0 -11 9 -5 34 7 34 7 34 -18 25 -21 -8 -29 -7 -40 8 -7 10
-19 17 -26 15 -8 -1 -17 5 -20 15 -6 14 -9 15 -15 4 -9 -14 -81 -23 -81 -10 0
4 -14 10 -31 14 -18 4 -35 16 -41 30 -7 15 -19 23 -32 23 -47 -2 -52 2 -26 22
21 16 26 17 33 4 5 -9 16 -13 28 -9z m-1525 -28 c1 -12 -4 -29 -11 -37 -7 -8
-15 -24 -17 -35 -5 -31 -33 -25 -33 8 1 31 -2 32 -28 12 -14 -10 -19 -28 -20
-67 -1 -47 -5 -55 -29 -66 -17 -9 -28 -23 -30 -40 -2 -15 -7 -27 -13 -27 -23
-1 -35 -17 -29 -41 5 -19 2 -24 -13 -24 -10 0 -24 5 -30 11 -9 9 -16 7 -28 -5
-16 -16 -18 -16 -30 0 -15 21 -39 9 -30 -15 5 -13 4 -13 -6 -4 -10 10 -7 19
16 43 31 32 65 40 65 15 0 -9 9 -15 22 -15 20 0 20 1 5 18 -24 26 -22 45 3 37
30 -9 41 2 30 31 -9 22 -6 26 33 41 23 10 45 17 50 15 11 -3 8 16 -4 20 -7 2
-5 18 5 48 11 32 12 48 4 57 -16 19 -1 29 22 15 16 -9 21 -9 28 4 6 11 11 13
16 5 12 -19 36 -12 36 11 0 27 13 15 16 -15z m1711 -149 c15 -34 54 -59 61
-38 5 14 32 0 32 -17 0 -10 -7 -14 -20 -10 -15 4 -20 0 -20 -14 0 -10 4 -19 9
-19 13 0 41 -29 41 -43 0 -6 -7 -1 -16 11 -10 14 -25 22 -45 22 -26 0 -29 3
-29 33 0 42 -15 66 -31 50 -9 -9 -8 -21 5 -53 19 -49 19 -50 3 -50 -7 0 -18
-5 -25 -12 -7 -7 -31 -13 -55 -15 -32 -2 -38 0 -24 8 9 5 17 20 17 32 1 19 2
19 10 6 6 -11 18 -15 35 -11 29 5 44 22 21 22 -11 0 -16 10 -16 31 0 24 -6 32
-30 40 -35 13 -38 25 -10 34 11 3 20 12 20 18 0 7 11 12 25 12 20 0 29 -8 42
-37z m-1556 -165 c12 -38 30 -87 41 -110 11 -22 18 -47 17 -55 -1 -7 3 -26 9
-41 14 -32 16 -67 5 -67 -5 0 -17 7 -27 15 -10 8 -23 12 -28 9 -4 -3 -11 2
-15 12 -6 16 -7 16 -20 -1 -7 -10 -14 -17 -16 -14 -1 2 -22 28 -46 57 -50 61
-45 79 19 79 45 0 48 -5 21 -38 -18 -23 -18 -23 6 -36 33 -17 43 -16 43 2 0 8
7 15 15 15 19 0 19 24 -1 70 -13 28 -21 36 -35 33 -21 -6 -25 7 -7 25 9 9 6
14 -13 21 -13 5 -21 11 -16 12 23 5 28 7 34 8 3 0 -1 9 -11 20 -13 15 -14 51
-1 51 2 0 13 -30 26 -67z"/>
<path d="M3398 3788 c-10 -12 -18 -36 -18 -53 0 -42 -24 -106 -43 -117 -12 -6
-15 -17 -11 -38 5 -20 0 -37 -15 -58 -11 -17 -21 -37 -21 -46 0 -9 -4 -16 -9
-16 -5 0 -12 -15 -15 -34 -7 -38 -30 -64 -41 -46 -3 5 -21 10 -40 10 -51 0
-78 -36 -66 -89 1 -2 8 2 16 9 9 7 14 19 11 26 -3 7 1 17 8 23 18 15 90 -12
94 -36 3 -19 -44 -80 -59 -75 -14 3 -10 -14 6 -28 19 -16 19 -49 1 -64 -16
-13 -31 -126 -17 -126 5 0 19 13 29 28 15 20 18 32 10 45 -9 17 12 94 34 124
5 6 8 22 6 35 -2 17 2 24 19 26 13 2 23 -3 25 -13 1 -9 19 -23 39 -29 l37 -13
-3 36 c-3 49 -14 71 -35 71 -33 0 -42 77 -12 108 9 10 18 35 19 57 2 21 10 49
18 61 8 13 15 39 15 57 0 20 9 46 22 63 12 15 24 33 25 38 9 37 6 86 -4 86 -5
0 -16 -10 -25 -22z"/>
<path d="M2766 3768 c-14 -16 -17 -32 -14 -70 4 -36 2 -51 -8 -55 -8 -3 -14
-16 -14 -29 0 -13 -5 -24 -11 -24 -7 0 -9 -10 -5 -25 5 -18 2 -25 -9 -25 -8 0
-15 7 -15 16 0 13 -2 13 -13 2 -16 -16 -28 -58 -17 -58 5 0 10 5 12 12 9 27
26 -4 21 -38 -5 -28 -2 -39 10 -46 24 -13 21 -27 -8 -38 -34 -13 -32 -38 3
-42 27 -3 34 -19 11 -27 -7 -2 -9 1 -4 8 5 9 1 9 -13 0 -18 -11 -24 -10 -41 5
-28 26 -54 15 -42 -18 6 -13 7 -27 4 -30 -3 -3 0 -13 8 -22 12 -15 14 -14 25
1 11 14 13 12 23 -18 7 -19 11 -77 11 -128 0 -52 -1 -101 0 -109 0 -8 -2 -37
-6 -65 l-6 -50 25 23 c22 21 24 29 20 77 -4 45 -2 55 14 63 17 10 19 7 18 -36
0 -60 16 -71 20 -14 3 33 -1 48 -16 63 -24 24 -24 25 1 32 26 7 44 55 31 83
-7 15 -5 33 4 60 8 22 14 35 15 30 0 -5 6 -3 14 3 15 12 46 5 46 -11 0 -6 7
-8 15 -4 9 3 15 0 15 -10 0 -8 -4 -12 -10 -9 -5 3 -10 1 -10 -4 0 -6 -6 -11
-14 -11 -19 0 -46 -28 -46 -47 0 -14 4 -12 23 5 32 30 44 28 61 -13 8 -19 17
-35 20 -35 8 0 -1 106 -10 121 -4 7 1 19 14 30 32 26 27 34 -7 10 -37 -27 -41
-26 -41 3 0 29 -17 43 -33 27 -6 -6 -20 -11 -30 -11 -15 0 -18 5 -13 23 3 12
6 34 6 49 0 21 6 29 25 34 14 3 25 10 25 15 0 5 9 9 20 9 24 0 28 -41 5 -60
-22 -18 -19 -35 9 -49 26 -15 66 -7 66 13 0 7 8 28 17 47 9 18 18 55 19 82 1
26 7 54 13 61 6 7 8 15 5 19 -3 3 6 13 21 23 15 10 22 21 17 26 -12 12 -52 -4
-76 -31 -30 -33 -46 -27 -46 17 0 40 14 62 40 62 9 0 22 16 30 38 8 20 16 40
18 45 2 4 -3 7 -12 7 -9 0 -16 -4 -16 -9 0 -14 -60 -78 -61 -66 -1 6 0 19 0
31 2 18 -2 20 -29 16 -17 -2 -30 0 -30 6 0 6 -13 13 -30 17 -16 4 -30 13 -30
20 0 24 -16 25 -34 3z"/>
<path d="M226 3750 c-2 -8 -7 -28 -11 -44 -3 -17 -15 -42 -26 -57 -10 -15 -19
-36 -19 -46 0 -11 -10 -28 -21 -39 -12 -10 -25 -28 -30 -39 -10 -21 -5 56 7
124 6 32 6 33 -16 21 -17 -9 -21 -18 -17 -38 3 -15 0 -36 -6 -47 -6 -11 -11
-33 -11 -50 -1 -19 -7 -31 -17 -33 -12 -2 -18 8 -22 40 -3 24 -2 47 4 53 16
16 10 35 -11 35 -27 0 -25 30 4 54 15 13 21 26 18 42 -6 32 -32 31 -32 -1 0
-14 -4 -25 -9 -25 -6 0 -10 -239 -10 -600 -1 -494 1 -600 12 -600 8 0 17 3 21
7 3 4 32 8 64 10 31 2 66 5 76 6 13 1 22 -6 26 -23 7 -29 35 -38 43 -15 4 8 2
15 -3 15 -6 0 -10 5 -10 11 0 12 58 3 77 -13 6 -5 32 -6 57 -3 48 8 55 1 33
-29 -10 -14 -18 -15 -40 -7 -15 6 -33 8 -41 5 -7 -3 -16 2 -19 10 -6 15 -47
23 -47 10 0 -13 51 -54 66 -54 9 0 14 -7 12 -17 -3 -12 -12 -17 -26 -16 -13 2
-25 -4 -28 -12 -4 -8 -12 -15 -20 -15 -8 0 -14 -10 -14 -24 0 -15 -7 -26 -20
-29 -24 -6 -27 -29 -4 -25 10 2 19 -3 22 -11 3 -8 0 -11 -6 -7 -6 3 -22 2 -37
-4 -33 -13 -61 1 -69 35 -7 26 -20 33 -31 15 -10 -17 -35 -11 -35 8 -1 18 -15
39 -42 61 -17 13 -18 5 -18 -143 0 -123 3 -156 12 -150 10 6 10 4 1 -7 -13
-13 -19 -200 -7 -212 4 -3 13 0 21 8 16 17 45 19 71 6 9 -5 31 -15 47 -22 17
-7 33 -15 38 -17 4 -2 7 1 7 7 0 6 -7 11 -15 11 -22 0 -18 27 7 44 17 12 19
18 9 30 -7 9 -11 21 -9 28 3 7 -5 20 -16 29 -21 17 -21 17 8 25 22 5 32 3 43
-11 11 -16 10 -22 -2 -42 -20 -30 -10 -46 22 -38 22 5 24 3 19 -12 -13 -33
-11 -37 27 -40 23 -2 37 1 37 8 0 7 9 9 24 5 24 -6 36 7 36 41 0 11 -7 14 -26
10 -20 -3 -28 0 -31 14 -6 22 -23 25 -41 7 -15 -15 -18 -11 -25 40 -5 39 -4
42 19 42 14 0 27 7 30 15 4 8 13 15 21 15 11 0 13 -5 8 -17 -4 -10 -10 -30
-13 -46 -4 -24 -1 -27 22 -27 18 0 24 4 20 15 -4 8 -1 15 5 15 6 0 11 -5 11
-11 0 -6 7 -8 16 -5 8 3 25 -1 37 -9 12 -7 41 -18 65 -23 37 -9 44 -8 52 8 15
28 12 33 -11 27 -29 -8 -109 47 -109 73 0 31 71 38 105 10 10 -8 36 -15 59
-15 l41 0 -3 -52 c-3 -38 1 -57 12 -69 9 -8 16 -21 16 -28 0 -7 9 -21 20 -31
11 -10 17 -21 14 -26 -2 -4 1 -18 8 -29 10 -16 10 -22 1 -28 -9 -6 -11 -24 -6
-60 7 -60 22 -69 24 -14 1 20 3 51 6 67 13 100 5 204 -15 191 -9 -5 -72 97
-72 116 0 6 10 8 23 4 12 -4 33 -9 47 -12 l25 -6 -1 79 c0 44 -4 84 -7 90 -4
6 -5 18 -2 26 7 16 -35 47 -64 47 -10 0 -21 6 -24 14 -5 12 -13 11 -49 -6 -49
-24 -145 -31 -152 -11 -8 20 23 45 46 37 33 -10 17 19 -20 36 -35 17 -41 42
-16 67 13 14 17 14 25 2 6 -9 9 0 9 30 0 34 -3 42 -15 37 -8 -3 -25 -1 -37 4
-13 5 -18 9 -12 9 7 1 19 12 28 26 14 22 15 31 4 68 -8 27 -19 42 -30 43 -18
2 -19 -2 -18 -78 1 -32 -3 -38 -20 -38 -11 0 -23 7 -26 15 -4 9 -13 14 -22 13
-8 -2 -17 3 -20 11 -3 10 2 12 21 8 20 -6 26 -3 30 15 7 26 -8 58 -28 58 -8 0
-15 5 -15 11 0 5 5 7 12 3 7 -5 9 -2 5 8 -3 9 -2 19 3 24 11 13 22 84 13 84
-23 0 -53 -33 -53 -59 0 -16 -7 -31 -15 -35 -19 -7 -19 -36 0 -36 28 0 17 -38
-15 -48 -29 -10 -29 -10 -23 18 5 28 -17 67 -31 53 -10 -10 -7 -61 4 -68 8 -5
7 -11 -1 -21 -16 -19 -1 -34 43 -43 24 -5 34 -13 36 -29 3 -22 1 -23 -35 -16
-21 4 -44 11 -51 17 -8 7 -20 7 -35 0 -12 -5 -52 -8 -88 -5 l-66 4 4 47 c2 25
5 57 6 71 1 14 11 32 22 42 19 15 19 17 2 35 -18 20 -21 79 -8 138 l7 30 17
-36 c10 -20 17 -40 16 -45 -5 -16 13 -78 30 -103 15 -24 15 -24 -16 -18 -30 6
-32 5 -31 -26 1 -39 32 -94 58 -102 11 -4 20 -11 20 -16 0 -5 5 -9 10 -9 14 0
13 43 -2 58 -9 9 -9 15 0 24 7 7 12 31 12 54 0 36 -3 43 -21 46 -18 2 -22 11
-25 49 -3 36 -1 46 11 46 8 0 15 -3 15 -7 0 -3 7 -15 15 -26 13 -16 13 -13 -1
20 -9 22 -13 50 -9 66 5 23 2 30 -14 35 -25 8 -27 28 -5 46 13 10 17 10 25 -2
5 -8 9 -10 9 -6 0 5 -9 20 -20 34 -11 14 -20 38 -20 53 0 36 -27 61 -36 34
-10 -34 -21 -49 -38 -52 -14 -3 -16 5 -10 65 3 37 7 112 8 166 2 53 6 100 10
104 3 4 15 8 26 10 15 2 19 -4 22 -35 2 -21 8 -36 15 -35 6 1 26 5 44 8 40 7
47 13 25 20 -9 3 -23 7 -31 10 -21 6 -31 35 -15 45 7 5 20 6 29 2 14 -5 14 -3
-1 14 -15 17 -22 44 -19 69 1 6 11 26 23 45 12 19 23 44 25 55 2 11 9 25 16
30 6 6 12 16 13 23 2 29 5 33 30 42 19 8 24 15 19 29 -3 11 -1 22 5 26 5 3 10
11 10 18 0 6 -7 1 -16 -12 l-17 -24 -18 24 c-14 19 -19 21 -23 9z m209 -1457
c36 -37 46 -43 51 -30 3 10 14 17 24 17 10 0 20 5 22 12 2 6 10 8 16 4 7 -4
10 -16 7 -25 -7 -23 27 -54 49 -45 16 6 56 -20 56 -38 0 -4 -14 -8 -31 -8 -37
0 -69 -16 -69 -34 0 -19 -28 -28 -40 -13 -44 52 -53 65 -61 86 -5 13 -12 21
-16 17 -3 -3 -12 -1 -19 5 -7 6 -18 8 -24 4 -13 -8 -13 -35 1 -35 5 0 8 -4 4
-9 -3 -5 2 -17 12 -26 14 -14 14 -18 2 -26 -20 -13 -29 -11 -29 5 0 16 -37 46
-57 46 -7 0 -13 -7 -13 -15 0 -19 -2 -19 -46 0 -34 14 -39 35 -8 35 9 0 22 7
31 15 8 9 28 19 44 22 32 6 38 18 14 27 -18 7 -20 42 -2 49 27 11 39 5 82 -40z"/>
<path d="M4506 3684 c-5 -18 -12 -24 -22 -20 -9 3 -26 3 -39 0 -21 -5 -23 -10
-18 -37 8 -44 32 -80 48 -73 8 3 17 1 21 -5 3 -6 16 -14 28 -18 18 -7 22 -4
26 18 7 37 32 32 43 -9 11 -45 20 -54 46 -45 25 8 28 42 4 48 -17 4 -17 5 0 6
17 1 21 19 18 71 -5 63 -7 70 -15 70 -4 0 -6 -11 -4 -24 3 -14 1 -31 -3 -38
-7 -10 -9 -9 -9 5 0 9 -12 23 -26 29 -22 11 -28 10 -40 -7 -13 -18 -14 -17
-14 12 0 19 -6 33 -16 37 -22 8 -21 9 -28 -20z"/>
<path d="M1103 3634 c10 -18 -22 -54 -48 -54 -13 0 -27 -5 -30 -10 -4 -6 -15
-8 -26 -5 -12 4 -19 2 -19 -7 -1 -7 -6 -3 -14 10 -11 21 -14 22 -26 7 -9 -11
-10 -19 -2 -27 6 -6 8 -17 5 -24 -3 -8 0 -21 6 -28 8 -10 9 -16 1 -21 -5 -3
-10 -17 -10 -30 0 -16 7 -25 27 -29 16 -5 29 -3 34 5 4 7 15 13 26 14 41 5 53
16 47 44 -4 14 -13 33 -20 42 -19 21 -18 24 10 43 22 14 28 14 52 1 50 -26 54
7 6 55 -14 14 -23 20 -19 14z"/>
<path d="M649 3283 c-44 -47 -57 -75 -73 -153 -20 -93 -20 -146 -1 -76 8 27
18 53 24 59 7 7 8 1 2 -21 -14 -48 -24 -157 -16 -181 l6 -21 29 20 c41 29 97
149 112 238 21 128 -23 200 -83 135z"/>
<path d="M875 2306 c-18 -19 -31 -37 -28 -40 4 -3 -1 -6 -10 -6 -12 0 -16 -7
-13 -22 3 -13 5 -29 5 -35 1 -7 10 -13 20 -13 11 0 22 -4 25 -8 9 -15 -6 -52
-21 -52 -8 0 -13 -7 -11 -17 2 -9 6 -16 11 -15 4 1 18 2 31 2 22 0 23 3 16 35
-5 21 -4 38 2 41 5 3 7 12 4 19 -8 21 16 46 34 35 12 -7 12 -12 -5 -29 -22
-25 -19 -29 29 -36 36 -6 37 -5 34 21 -2 21 2 29 16 32 13 3 16 0 11 -9 -5 -8
-4 -10 3 -5 7 4 12 18 12 32 0 18 -6 24 -22 26 -13 0 -27 2 -33 3 -5 2 -17 3
-26 4 -8 0 -23 7 -33 14 -15 11 -17 17 -7 35 18 34 -4 27 -44 -12z"/>
<path d="M1311 2146 c-7 -8 -12 -34 -11 -58 0 -23 -4 -68 -10 -98 -5 -30 -7
-70 -4 -89 6 -27 4 -32 -7 -26 -8 5 -6 0 4 -12 21 -24 21 -32 0 -55 -15 -17
-15 -18 0 -18 10 0 17 -5 17 -11 0 -7 -11 -8 -30 -4 -42 9 -41 -19 1 -34 24
-8 30 -15 25 -28 -4 -9 -10 -37 -13 -61 -5 -36 -3 -44 8 -40 14 5 17 19 22
105 1 23 8 48 15 55 6 6 12 18 12 26 0 8 7 20 17 27 11 8 13 14 5 19 -7 4 -12
2 -12 -3 0 -6 -5 -11 -11 -11 -8 0 -10 12 -6 34 3 18 1 38 -5 44 -6 6 -5 20 6
40 18 34 39 45 56 29 9 -9 11 -5 8 18 -2 25 1 31 20 33 30 4 28 14 -8 40 -36
27 -35 27 -36 -4 -2 -31 -9 -38 -27 -31 -18 7 -32 86 -17 101 5 5 10 14 10 18
0 13 -16 9 -29 -6z"/>
<path d="M839 2013 c0 -5 -2 -18 -5 -31 -3 -20 -1 -22 17 -17 14 5 27 -1 45
-20 26 -28 31 -47 12 -42 -6 1 -13 -5 -15 -14 -4 -18 27 -35 80 -44 26 -4 37
-11 37 -23 0 -9 5 -24 10 -32 9 -13 12 -13 23 2 9 11 18 14 28 7 8 -5 29 -9
48 -9 19 0 42 -7 52 -16 19 -17 39 -12 39 10 0 8 -15 17 -34 20 -37 7 -64 30
-47 40 6 4 8 13 5 20 -3 9 3 17 15 21 26 8 41 -1 41 -23 1 -27 30 16 30 44 0
12 7 25 15 28 14 5 14 8 -1 31 -18 27 -37 34 -28 10 3 -8 2 -20 -2 -27 -5 -7
-9 -17 -9 -22 0 -5 -6 -11 -12 -13 -7 -3 -13 0 -13 6 0 13 -60 45 -68 36 -4
-4 1 -11 11 -16 26 -15 21 -29 -30 -77 -43 -39 -48 -42 -51 -24 -2 11 4 34 13
51 16 32 6 41 -24 22 -10 -6 -25 -4 -43 5 -26 14 -28 13 -28 -6 0 -11 -4 -20
-10 -20 -13 0 -13 23 1 37 18 18 1 50 -34 63 -18 6 -40 16 -49 21 -10 5 -18 6
-19 2z"/>
<path d="M857 1640 c-17 -20 -16 -20 8 -14 40 10 29 -41 -11 -57 -24 -9 -25
-12 -29 -99 -1 -19 -5 -47 -9 -62 -6 -22 -5 -28 7 -28 9 0 23 -7 31 -15 14
-14 16 -14 20 7 14 68 16 97 6 103 -6 4 -8 15 -5 26 4 11 2 19 -4 19 -6 0 -11
6 -11 13 0 17 43 41 62 34 7 -2 23 5 36 16 19 18 22 18 22 4 0 -9 5 -17 10
-17 17 0 11 16 -17 46 -15 16 -34 28 -44 26 -9 -2 -20 2 -24 8 -10 16 -29 12
-48 -10z"/>
<path d="M23 1503 c-13 -2 -23 -11 -23 -20 0 -11 6 -14 24 -9 29 7 41 -7 38
-47 -2 -22 2 -28 15 -26 25 3 74 -18 89 -39 12 -16 14 -16 26 -1 20 26 41 28
71 7 34 -24 35 -53 2 -74 -27 -18 -34 -40 -9 -30 23 9 79 -23 65 -37 -6 -6
-11 -17 -11 -25 0 -10 10 -5 27 12 21 21 27 36 24 61 -2 32 12 55 23 37 5 -9
56 -4 56 5 0 13 -29 32 -35 23 -3 -5 -14 -10 -25 -10 -21 0 -17 35 6 44 8 3
14 12 14 20 0 7 6 16 14 19 9 4 12 14 9 27 -4 17 -11 20 -29 16 -19 -5 -23 -1
-29 25 -4 16 -11 29 -17 27 -11 -4 -12 -5 -3 -40 4 -16 11 -28 16 -28 5 0 9
-7 9 -16 0 -10 -6 -14 -14 -11 -11 4 -13 1 -9 -10 4 -10 2 -14 -4 -10 -6 4
-14 -1 -17 -10 -6 -14 -10 -13 -34 10 -21 20 -31 24 -45 15 -10 -5 -34 -8 -53
-6 -19 2 -34 0 -34 -6 0 -6 -7 0 -16 12 -9 13 -26 22 -40 22 -23 0 -25 3 -19
29 5 23 2 32 -14 40 -11 6 -21 10 -23 10 -2 -1 -13 -4 -25 -6z"/>
<path d="M602 1243 c-16 -3 -21 -10 -18 -21 2 -9 8 -36 11 -60 4 -24 13 -46
21 -49 23 -9 16 -19 -13 -18 -34 0 -44 12 -36 42 3 13 1 23 -5 23 -14 0 -22
-53 -10 -67 6 -7 7 -13 3 -13 -3 0 3 -12 14 -26 23 -30 27 -54 9 -72 -8 -8 -4
-20 16 -47 32 -42 43 -44 56 -10 12 30 3 56 -16 48 -22 -8 -16 21 9 45 13 12
31 22 40 22 9 0 17 3 18 8 0 4 2 24 5 44 2 20 0 39 -6 43 -5 3 -10 15 -10 25
0 11 -9 24 -20 30 -11 6 -23 22 -26 35 -3 14 -9 24 -13 24 -3 -1 -16 -4 -29
-6z"/>
<path d="M2433 978 c2 -7 0 -21 -5 -31 -7 -14 -13 -15 -30 -6 -17 9 -23 9 -26
0 -2 -6 -17 -18 -34 -27 -19 -10 -28 -21 -24 -30 3 -9 -1 -14 -12 -14 -15 0
-15 -2 -2 -10 11 -7 7 -10 -17 -10 -36 0 -38 -2 -23 -30 9 -16 18 -18 67 -13
66 6 82 15 64 37 -9 11 -18 13 -30 6 -9 -5 -22 -5 -29 -1 -19 11 15 53 38 46
13 -4 17 -1 16 12 0 10 6 18 14 18 18 0 15 -46 -4 -57 -7 -5 -5 -8 7 -8 9 0
17 5 17 10 0 6 7 10 15 10 8 0 15 -9 15 -21 0 -11 -4 -17 -10 -14 -6 3 -7 -1
-4 -10 8 -20 29 -13 28 8 -1 9 2 14 7 11 5 -3 9 0 9 5 0 6 11 11 25 11 16 0
25 6 25 15 0 19 -5 19 -35 -1 -32 -21 -47 -11 -34 23 13 34 2 83 -18 83 -8 0
-13 -6 -10 -12z"/>
<path d="M83 542 c-12 -9 -25 -29 -28 -44 -4 -16 -12 -28 -18 -28 -7 0 1 -12
16 -26 32 -30 27 -46 -12 -38 -24 5 -29 2 -33 -18 -3 -14 -1 -36 4 -49 9 -23
10 -23 24 -5 8 11 14 28 14 38 0 21 20 24 38 6 9 -9 12 -6 12 15 0 20 5 27 20
27 11 0 22 -1 23 -2 2 -2 12 3 21 11 21 17 5 31 -36 31 -70 0 -80 35 -14 45
50 8 66 2 66 -24 0 -26 22 -42 40 -31 12 8 10 10 -9 10 -18 0 -22 4 -16 18 17
41 17 52 -1 58 -11 3 -27 10 -36 15 -26 13 -50 11 -75 -9z"/>
<path d="M1036 543 c-5 -12 1 -23 18 -36 15 -10 26 -27 26 -38 0 -11 7 -19 16
-19 10 0 14 7 12 23 -2 18 2 23 25 25 29 4 37 -12 12 -22 -12 -4 -13 -10 -6
-25 14 -25 42 -35 53 -19 6 9 8 8 6 -6 -2 -10 3 -21 10 -23 7 -3 12 4 12 15 0
22 16 38 44 43 22 4 34 27 14 26 -7 0 -24 1 -37 1 -20 2 -21 4 -11 17 7 8 10
22 6 30 -5 14 -8 14 -31 -1 -21 -13 -31 -15 -50 -6 -14 6 -38 9 -55 6 -22 -5
-31 -2 -36 10 -8 21 -20 20 -28 -1z"/>
<path d="M262 450 c15 -11 36 -20 47 -20 12 0 21 -6 21 -15 0 -11 -12 -15 -49
-15 -58 0 -111 -17 -111 -36 0 -19 26 -18 34 2 6 15 8 15 27 -2 14 -13 32 -17
61 -15 31 2 43 -2 55 -18 8 -12 19 -19 24 -16 15 10 10 25 -7 25 -14 0 -14 3
-4 15 7 9 13 25 14 37 1 17 9 24 34 29 40 8 59 23 42 34 -7 4 -57 9 -113 11
l-100 4 25 -20z"/>
<path d="M942 444 c-18 -8 -37 -12 -43 -9 -5 4 -9 1 -9 -5 0 -6 -4 -9 -9 -6
-12 8 -71 -66 -71 -88 0 -21 16 -20 30 2 8 11 13 13 16 5 4 -9 11 -9 29 -1 18
8 28 8 39 -1 10 -8 27 -10 46 -6 24 5 35 3 45 -12 14 -17 14 -17 15 0 0 10 5
15 10 12 6 -3 10 3 10 15 0 12 -4 19 -9 15 -15 -8 -25 15 -12 28 8 8 11 8 11
-2 0 -8 7 -10 20 -6 25 8 38 -18 20 -40 -14 -16 -7 -45 11 -45 6 0 9 7 6 15
-4 8 -2 17 3 20 6 4 10 0 10 -8 0 -19 36 -64 45 -55 4 3 -3 16 -14 27 -25 25
-26 31 -6 31 8 0 15 7 15 15 0 8 6 15 14 15 9 0 12 7 9 21 -4 15 -11 19 -26
15 -25 -6 -57 10 -57 29 0 12 -5 13 -26 3 -22 -10 -28 -10 -38 3 -17 24 -47
29 -84 13z"/>
<path d="M956 278 c11 -17 14 -108 4 -108 -4 0 -13 7 -20 15 -18 22 -30 18
-30 -9 0 -17 -11 -31 -35 -46 -38 -24 -41 -29 -22 -49 10 -11 9 -13 -4 -8 -9
3 -22 0 -28 -6 -8 -8 -11 -7 -11 5 0 9 5 20 10 23 6 3 10 17 10 31 0 18 -5 24
-21 24 -12 0 -23 8 -26 19 -3 11 -12 22 -20 25 -18 7 -54 -11 -52 -27 3 -22
-1 -37 -9 -37 -5 0 -8 8 -8 18 1 26 -18 30 -29 5 -5 -13 -14 -22 -20 -21 -5 1
-25 -2 -44 -6 -23 -6 -36 -4 -41 4 -6 9 -13 9 -29 1 -16 -9 -21 -9 -21 0 0 6
-9 9 -20 6 -25 -6 -66 25 -56 42 4 6 16 9 27 6 17 -6 85 19 93 34 1 3 -3 17
-11 31 l-13 25 -6 -22 c-8 -29 -44 -41 -59 -20 -10 14 -12 13 -23 -4 -7 -10
-21 -19 -32 -19 -24 0 -38 -45 -21 -71 6 -10 11 -26 11 -34 0 -12 7 -14 27 -9
16 4 31 12 35 18 4 7 15 6 32 -4 27 -14 35 -40 13 -40 -7 0 -21 -10 -31 -21
-14 -17 -25 -20 -56 -15 -21 3 -45 9 -53 12 -10 3 -20 -3 -27 -16 -13 -25 -4
-42 11 -20 8 11 12 12 16 3 6 -17 87 -17 113 0 14 8 23 9 28 1 4 -5 29 -10 57
-10 40 1 50 5 53 19 2 10 -4 24 -14 31 -11 9 -13 15 -6 20 13 8 32 -24 32 -54
0 -17 5 -20 35 -18 26 1 35 7 35 20 0 13 8 18 25 18 18 0 25 -5 25 -19 0 -18
9 -19 129 -19 l130 0 4 27 4 26 2 -27 c1 -28 31 -41 31 -14 0 15 30 26 72 26
15 0 31 7 36 15 5 10 27 18 57 20 26 3 54 10 61 16 11 9 14 8 14 0 0 -7 6 -11
13 -10 6 1 31 1 55 0 40 -1 42 -3 42 -31 0 -17 -7 -33 -17 -39 -15 -9 -13 -10
13 -11 l32 0 -2 65 c-1 62 -2 64 -25 58 -20 -5 -22 -3 -16 16 4 12 2 21 -4 21
-6 0 -11 -4 -11 -8 0 -13 -68 -8 -82 6 -14 14 -28 15 -47 3 -12 -8 -12 -12 -2
-25 7 -8 10 -20 6 -27 -11 -17 -25 10 -25 49 0 22 -5 32 -15 32 -9 0 -15 -9
-15 -22 0 -13 -4 -18 -8 -13 -10 14 -35 13 -45 -2 -4 -7 -15 -13 -24 -13 -14
0 -14 2 1 19 21 23 4 40 -20 20 -12 -10 -14 -7 -12 17 3 40 -8 54 -41 54 -15
0 -37 9 -49 20 -23 22 -48 27 -36 8z"/>
<path d="M295 210 c-5 -16 -12 -19 -28 -14 -12 4 -25 11 -28 17 -4 5 -15 7
-25 2 -11 -4 -33 -8 -51 -10 -18 -1 -38 -7 -46 -13 -9 -8 -17 -8 -24 -1 -6 6
-8 0 -5 -19 5 -34 -23 -66 -34 -38 -3 9 -3 27 0 41 5 20 3 23 -11 18 -31 -11
-43 -25 -43 -48 0 -19 4 -22 23 -17 21 5 21 4 4 -15 -31 -36 -16 -60 18 -27
15 15 17 15 29 -1 11 -15 18 -16 43 -8 20 7 35 7 47 1 12 -7 21 -7 29 1 18 18
-9 36 -53 36 -41 0 -53 13 -26 30 11 7 22 6 36 -3 27 -16 89 -15 123 3 15 8
34 12 43 8 15 -6 43 22 44 43 0 7 -8 14 -17 18 -10 3 -23 9 -30 12 -6 3 -14
-4 -18 -16z"/>
<path d="M1560 189 c-25 -21 -29 -29 -17 -29 10 0 20 7 23 15 9 21 22 19 29
-6 5 -15 1 -25 -14 -35 -17 -12 -19 -19 -11 -34 5 -10 7 -26 4 -34 -7 -18 -24
-22 -24 -6 0 18 -29 10 -35 -9 -3 -11 -15 -23 -26 -26 -25 -8 -25 -25 1 -18
11 3 20 10 20 15 0 6 7 8 15 5 8 -4 17 -2 20 3 10 16 22 11 28 -10 6 -25 61
-28 84 -4 9 8 22 13 29 10 8 -3 21 -9 29 -12 11 -5 15 1 15 20 0 14 -5 26 -10
26 -6 0 -3 11 7 24 19 26 29 23 35 -9 4 -19 5 -19 17 3 11 21 10 26 -7 43 -17
15 -21 16 -26 4 -7 -20 -56 -20 -56 0 0 17 -25 20 -35 5 -10 -17 -25 -1 -25
26 0 14 -8 33 -17 43 -18 19 -19 18 -53 -10z"/>
</g>
</svg>
